<?xml version="1.0" encoding="utf-8"?>
<!-- Generator: Adobe Illustrator 27.4.1, SVG Export Plug-In . SVG Version: 6.00 Build 0)  -->
<svg version="1.1" xmlns="http://www.w3.org/2000/svg" xmlns:xlink="http://www.w3.org/1999/xlink" x="0px" y="0px"
	 viewBox="0 0 733.82 226.72" style="enable-background:new 0 0 733.82 226.72;" xml:space="preserve">
<style type="text/css">
	.st0{display:none;}
	.st1{display:inline;}
	.st2{fill:#FFFFFF;}
	.st3{fill-rule:evenodd;clip-rule:evenodd;fill:#FFFFFF;}
	.st4{fill:none;stroke:#FFFFFF;stroke-width:2;stroke-miterlimit:10;}
</style>
<g id="Background" class="st0">
	<rect x="-51.79" y="-67.3" class="st1" width="847.15" height="355.06"/>
</g>
<g id="Designation">
	<g>
		<path class="st2" d="M188.24,208.48h-8.98c-3.36,0-4.56,1.56-4.56,4.8v3.89c0,3.24,1.2,4.82,4.44,4.82h2.64
			c3.46,0,4.44-0.6,4.44-2.69v-2.93h-6.05v-2.4h8.81v4.9c0,4.54-2.18,5.52-7.56,5.52h-1.92c-5.4,0-7.8-3.07-7.8-7.87v-2.57
			c0-4.8,2.26-7.87,7.92-7.87h8.62V208.48z"/>
		<path class="st2" d="M194.84,206.08v18h-2.64v-18H194.84z"/>
		<path class="st2" d="M213.11,218.05c0,4.03-2.23,6.34-6.5,6.34h-1.8c-4.49,0-6.5-2.3-6.5-6.34v-2.35c0-4.03,2.02-6.34,6.5-6.34
			h1.8c4.27,0,6.5,2.3,6.5,6.34V218.05z M206.94,211.64h-2.5c-2.45,0-3.38,1.13-3.38,3.7v3.07c0,2.57,0.94,3.7,3.38,3.7h2.5
			c2.59,0,3.41-1.13,3.41-3.7v-3.07C210.35,212.77,209.53,211.64,206.94,211.64z"/>
		<path class="st2" d="M216.32,206.08h2.64v3.6h5.4c3.86,0,5.93,2.18,5.93,6.22v1.97c0,4.03-2.06,6.22-5.93,6.22h-8.04V206.08z
			 M218.96,211.96v9.84h5.16c2.5,0,3.41-1.01,3.41-3.58v-2.66c0-2.59-0.91-3.6-3.41-3.6H218.96z"/>
		<path class="st2" d="M246.06,224.08h-8.88c-2.76,0-4.39-1.08-4.39-3.43c0-1.56,1.2-2.59,3.22-4.1l6.07-4.58h-9.12v-2.28h7.66
			c3.67,0,5.45,2.02,5.45,5.21V224.08z M243.42,221.68v-7.85l-6.46,4.9c-0.89,0.67-1.44,0.98-1.44,1.82c0,0.79,0.7,1.13,1.54,1.13
			H243.42z"/>
		<path class="st2" d="M252.51,206.08v18h-2.64v-18H252.51z"/>
		<path class="st2" d="M278.71,212.13c0,3.91-3.12,4.99-6.58,4.99h-6.41v6.96h-2.76v-18h9.17c3.46,0,6.58,1.08,6.58,4.99V212.13z
			 M275.83,211.02c0-1.75-0.79-2.54-3.26-2.54h-6.84v6.24h6.84c2.47,0,3.26-0.79,3.26-2.54V211.02z"/>
		<path class="st2" d="M293.88,224.08H285c-2.76,0-4.39-1.08-4.39-3.43c0-1.56,1.2-2.59,3.22-4.1l6.07-4.58h-9.12v-2.28h7.66
			c3.67,0,5.45,2.02,5.45,5.21V224.08z M291.24,221.68v-7.85l-6.46,4.9c-0.89,0.67-1.44,0.98-1.44,1.82c0,0.79,0.7,1.13,1.54,1.13
			H291.24z"/>
		<path class="st2" d="M302.33,209.68h3.7v2.28h-3.82c-1.51,0-2.11,0.48-2.11,1.94v10.18h-2.64v-9.96
			C297.46,211.19,299.5,209.68,302.33,209.68z"/>
		<path class="st2" d="M304.39,209.68h2.4v-2.81h2.57v2.81h5.35v2.28h-5.35v8.23c0,1.22,0.48,1.61,1.63,1.61h3.72v2.28h-3.7
			c-2.69,0-4.3-1.32-4.3-4.03v-8.09h-2.33V209.68z"/>
		<path class="st2" d="M317.45,209.68h8.11c3.62,0,5.21,1.78,5.21,5.16v9.24h-2.64v-9.53c0-1.9-0.67-2.47-2.38-2.47h-5.66v12h-2.64
			V209.68z"/>
		<path class="st2" d="M336.74,217.79v1.18c0,1.92,1.18,2.83,3.65,2.83h7.22v2.28h-6.86c-3.96,0-6.77-1.68-6.77-5.71v-2.52
			c0-4.25,2.26-6.38,6.5-6.38h1.32c4.2,0,6.26,1.87,6.26,5.66v2.66H336.74z M340.13,211.74c-2.45,0-3.38,0.91-3.38,3.74v0.12h8.57
			v-0.84c0-2.16-0.65-3.02-3.17-3.02H340.13z"/>
		<path class="st2" d="M356.16,209.68h4.18v2.28h-4.3c-1.51,0-2.11,0.48-2.11,1.94v10.18h-2.64v-9.96
			C351.29,211.19,353.33,209.68,356.16,209.68z"/>
		<path class="st2" d="M382.9,218.05c0,4.03-2.23,6.34-6.5,6.34h-1.8c-4.49,0-6.5-2.3-6.5-6.34v-2.35c0-4.03,2.02-6.34,6.5-6.34h1.8
			c4.27,0,6.5,2.3,6.5,6.34V218.05z M376.73,211.64h-2.5c-2.45,0-3.38,1.13-3.38,3.7v3.07c0,2.57,0.94,3.7,3.38,3.7h2.5
			c2.59,0,3.41-1.13,3.41-3.7v-3.07C380.14,212.77,379.32,211.64,376.73,211.64z"/>
		<path class="st2" d="M386.88,211.96h-2.33v-2.28h2.33c0-2.86,1.56-4.08,4.39-4.08h3.6v2.09h-3.82c-1.15,0-1.63,0.38-1.63,1.61
			v0.38h5.45v2.28h-5.35v12.12h-2.64V211.96z"/>
		<path class="st2" d="M403.22,206.08h14.42v2.4h-11.66v5.26h11.66v2.4h-11.66v7.95h-2.76V206.08z"/>
		<path class="st2" d="M429.67,224.37h-2.4c-5.54,0-7.92-3.1-7.92-7.85v-2.88c0-4.8,2.38-7.87,7.92-7.87h2.4
			c5.52,0,7.92,3.07,7.92,7.87v2.88C437.59,221.27,435.19,224.37,429.67,224.37z M426.91,221.97h3.12c3.31,0,4.56-1.58,4.56-4.8
			v-4.2c0-3.24-1.25-4.8-4.56-4.8h-3.12c-3.29,0-4.56,1.56-4.56,4.8v4.2C422.35,220.38,423.62,221.97,426.91,221.97z"/>
		<path class="st2" d="M453,224.08l-7.06-7.71c-0.48-0.53-0.67-1.2-0.5-1.75c0.17-0.53,0.7-0.94,1.51-0.94h4.15
			c2.09,0,2.78-0.5,2.78-2.26v-0.74c0-1.75-0.7-2.21-2.78-2.21h-7.54v15.6h-2.76v-18h9.7c3.55,0,6.22,0.98,6.22,4.66v0.65
			c0,3.67-2.3,4.66-6.34,4.66h-1.37l7.39,8.04H453z"/>
		<path class="st2" d="M461.49,208.96c0.38-2.11,1.25-3.19,3.1-3.19c2.02,0,2.86,1.44,3.31,3.38l2.93,12.36
			c0.1,0.43,0.17,0.67,0.43,0.67c0.29,0,0.34-0.24,0.43-0.65l2.98-12.38c0.46-1.94,1.44-3.38,3.34-3.38c1.99,0,2.86,1.06,3.24,3.19
			l2.71,15.12h-2.93l-2.5-15.24c-0.07-0.48-0.22-0.65-0.48-0.65c-0.29,0-0.48,0.17-0.6,0.67l-2.93,12.34
			c-0.48,2.06-1.27,3.19-3.26,3.19c-2.06,0-2.78-1.34-3.19-3.1l-2.9-12.41c-0.12-0.55-0.26-0.7-0.55-0.7
			c-0.26,0-0.46,0.17-0.53,0.65l-2.54,15.24h-2.81L461.49,208.96z"/>
		<path class="st2" d="M486.94,218.49v-12.41h2.76v12.6c0,2.26,1.1,3.31,3.5,3.31h4.32c2.28,0,3.46-1.06,3.46-3.31v-12.6h2.76v12.41
			c0,4.13-2.02,5.9-6.96,5.9h-3.12C488.98,224.39,486.94,222.61,486.94,218.49z"/>
		<path class="st2" d="M507.79,206.08h2.76v15.6h10.7v2.4h-13.46V206.08z"/>
		<path class="st2" d="M536.81,219.23h-10.08l-2.06,4.85h-2.95l6.79-15.36c0.77-1.75,1.42-2.95,3.29-2.95c1.85,0,2.57,1.2,3.22,2.69
			l6.86,15.63h-3L536.81,219.23z M527.81,216.69h7.92l-3.24-7.61c-0.24-0.58-0.43-0.74-0.72-0.74s-0.46,0.12-0.72,0.72
			L527.81,216.69z"/>
		<path class="st2" d="M548.9,221.68h5.45v-12.41c0-0.5-0.24-0.79-0.72-0.79h-4.18v-2.4h4.61c2.16,0,3.05,1.03,3.05,3.17v12.43h4.8
			v2.4H548.9V221.68z"/>
	</g>
</g>
<g id="AWS">
	<g>
		<path class="st2" d="M575.81,53.76c0,2.73,0.28,4.91,0.83,6.53c0.55,1.62,1.34,3.37,2.37,5.25c0.34,0.6,0.51,1.15,0.51,1.66
			c0,0.77-0.47,1.49-1.41,2.18l-4.61,3.07c-0.68,0.43-1.32,0.64-1.92,0.64c-0.77,0-1.49-0.34-2.18-1.02
			c-1.02-1.02-1.9-2.15-2.62-3.39c-0.73-1.24-1.47-2.67-2.24-4.29c-5.72,6.74-12.89,10.11-21.51,10.11
			c-6.15,0-11.01-1.75-14.59-5.25c-3.58-3.5-5.38-8.19-5.38-14.08c0-6.23,2.22-11.24,6.66-15.04c4.44-3.8,10.41-5.7,17.92-5.7
			c2.47,0,5.06,0.19,7.74,0.58c2.69,0.38,5.48,0.92,8.39,1.6v-5.38c0-5.55-1.15-9.45-3.46-11.71c-2.3-2.26-6.27-3.39-11.91-3.39
			c-2.56,0-5.19,0.32-7.87,0.96s-5.31,1.47-7.87,2.5c-1.2,0.51-2.05,0.83-2.56,0.96c-0.51,0.13-0.9,0.19-1.15,0.19
			c-1.02,0-1.54-0.77-1.54-2.3v-3.58c0-1.19,0.17-2.05,0.51-2.56c0.34-0.51,1.02-1.02,2.05-1.54c2.56-1.28,5.63-2.39,9.22-3.33
			C542.78,6.47,546.58,6,550.59,6c8.71,0,15.08,1.98,19.14,5.95c4.05,3.97,6.08,9.97,6.08,17.99V53.76z M546.11,64.89
			c2.39,0,4.91-0.45,7.55-1.34c2.64-0.9,4.95-2.45,6.91-4.67c1.19-1.36,2.03-2.92,2.5-4.67c0.47-1.75,0.7-3.86,0.7-6.34v-3.07
			c-2.13-0.51-4.38-0.92-6.72-1.22c-2.35-0.3-4.63-0.45-6.85-0.45c-4.86,0-8.49,0.98-10.88,2.94c-2.39,1.96-3.58,4.78-3.58,8.45
			c0,3.41,0.9,6,2.69,7.75C540.22,64.02,542.78,64.89,546.11,64.89z M604.87,72.83c-1.28,0-2.22-0.23-2.82-0.7
			c-0.6-0.47-1.11-1.43-1.54-2.88l-17.15-56.59c-0.43-1.45-0.64-2.43-0.64-2.94c0-1.19,0.6-1.79,1.79-1.79h7.17
			c1.36,0,2.32,0.24,2.88,0.7c0.55,0.47,1.04,1.43,1.47,2.88l12.29,48.39l11.39-48.39c0.34-1.45,0.81-2.41,1.41-2.88
			c0.6-0.47,1.58-0.7,2.94-0.7h5.89c1.36,0,2.35,0.24,2.94,0.7c0.6,0.47,1.07,1.43,1.41,2.88l11.52,49.03l12.67-49.03
			c0.43-1.45,0.92-2.41,1.47-2.88c0.55-0.47,1.51-0.7,2.88-0.7h6.78c1.19,0,1.79,0.6,1.79,1.79c0,0.34-0.04,0.73-0.13,1.15
			c-0.09,0.43-0.26,1.02-0.51,1.79l-17.67,56.59c-0.43,1.45-0.94,2.41-1.54,2.88c-0.6,0.47-1.54,0.7-2.82,0.7h-6.27
			c-1.37,0-2.35-0.26-2.94-0.77c-0.6-0.51-1.07-1.49-1.41-2.94l-11.39-47.11l-11.27,47.11c-0.34,1.45-0.81,2.43-1.41,2.94
			c-0.6,0.51-1.58,0.77-2.94,0.77H604.87z M698.84,74.75c-3.84,0-7.6-0.43-11.27-1.28c-3.67-0.85-6.49-1.83-8.45-2.94
			c-1.2-0.68-1.94-1.36-2.24-2.05c-0.3-0.68-0.45-1.36-0.45-2.05v-3.71c0-1.54,0.55-2.3,1.66-2.3c0.43,0,0.87,0.09,1.34,0.26
			c0.47,0.17,1.09,0.43,1.86,0.77c2.47,1.11,5.16,1.96,8.06,2.56c2.9,0.6,5.8,0.9,8.71,0.9c4.61,0,8.17-0.81,10.69-2.43
			c2.52-1.62,3.78-3.92,3.78-6.91c0-2.05-0.66-3.75-1.98-5.12c-1.32-1.36-3.78-2.64-7.36-3.84l-10.63-3.33
			c-5.38-1.71-9.28-4.18-11.71-7.43c-2.43-3.24-3.65-6.79-3.65-10.63c0-3.07,0.66-5.78,1.98-8.13c1.32-2.35,3.07-4.35,5.25-6.02
			c2.18-1.66,4.72-2.92,7.62-3.78c2.9-0.85,5.97-1.28,9.22-1.28c1.62,0,3.26,0.11,4.93,0.32c1.66,0.21,3.24,0.49,4.74,0.83
			c1.49,0.34,2.88,0.73,4.16,1.15c1.28,0.43,2.3,0.85,3.07,1.28c1.02,0.6,1.75,1.2,2.18,1.79c0.43,0.6,0.64,1.41,0.64,2.43v3.46
			c0,1.54-0.56,2.3-1.66,2.3c-0.6,0-1.54-0.3-2.82-0.9c-4.18-1.88-8.88-2.82-14.08-2.82c-4.18,0-7.43,0.68-9.73,2.05
			c-2.3,1.37-3.46,3.54-3.46,6.53c0,2.05,0.72,3.78,2.18,5.18c1.45,1.41,4.14,2.75,8.07,4.03l10.37,3.33
			c5.29,1.71,9.07,4.06,11.33,7.04c2.26,2.99,3.39,6.4,3.39,10.24c0,3.16-0.64,6-1.92,8.51c-1.28,2.52-3.05,4.67-5.31,6.46
			c-2.26,1.79-4.97,3.16-8.13,4.1C706.05,74.28,702.59,74.75,698.84,74.75z"/>
		<g>
			<path class="st3" d="M712.67,110.78C688.59,128.55,653.67,138,623.6,138c-42.14,0-80.09-15.58-108.81-41.51
				c-2.25-2.04-0.24-4.82,2.47-3.24c30.98,18.03,69.3,28.89,108.87,28.89c26.7,0,56.04-5.54,83.04-16.99
				C713.24,103.42,716.66,107.83,712.67,110.78z"/>
			<path class="st3" d="M722.7,99.33c-3.08-3.94-20.36-1.87-28.13-0.94c-2.35,0.28-2.72-1.77-0.6-3.26
				c13.79-9.68,36.38-6.89,39-3.65c2.64,3.27-0.7,25.92-13.61,36.73c-1.99,1.66-3.88,0.78-3-1.42
				C719.27,119.54,725.78,103.28,722.7,99.33z"/>
		</g>
	</g>
</g>
<g id="Separator">
	<line class="st4" x1="448.91" y1="6" x2="448.91" y2="138"/>
</g>
<g id="F1_Logo">
	<g>
		<g>
			<path class="st2" d="M96.89,78.7L54.31,120H0l67.57-67.06C92.69,28.08,104.8,24,147.63,24h169.18L280.1,59.96H152.48
				C120.48,59.96,113.67,62.42,96.89,78.7z M274.61,65.69H153.24c-32.23,0-37.27,2.47-51.89,17.08L64.13,120h50.36l11.98-11.98
				c7.92-7.92,11.45-8.67,27.41-8.67h87.08L274.61,65.69z M287.75,120L384,24h-59.79l-96,96H287.75z"/>
		</g>
		<g>
			<path class="st2" d="M328.17,120c-3.03,0-5.55-1.01-7.55-3.04c-2.01-2.03-3.01-4.52-3.01-7.48c0-2.96,1-5.45,2.99-7.46
				c1.99-2.01,4.5-3.02,7.53-3.02c3.03,0,5.53,1.01,7.51,3.04c1.98,2.03,2.97,4.52,2.97,7.48c0,2.96-0.98,5.45-2.95,7.46
				C333.69,119,331.2,120,328.17,120z M328.11,100.66c-2.48,0-4.56,0.86-6.24,2.58c-1.67,1.72-2.51,3.8-2.51,6.25
				c0,2.45,0.84,4.53,2.51,6.25c1.67,1.72,3.75,2.58,6.24,2.58c2.48,0,4.56-0.85,6.24-2.56c1.67-1.71,2.51-3.79,2.51-6.25
				c0-2.46-0.84-4.55-2.51-6.27C332.67,101.52,330.59,100.66,328.11,100.66z M326.06,111.23v4.12h-2.31V103.7h4.38
				c1.51,0,2.65,0.28,3.41,0.85c0.76,0.56,1.14,1.41,1.14,2.54s-0.15,1.97-0.46,2.52c-0.31,0.55-0.83,0.99-1.57,1.33l2.19,4.42
				h-2.43l-1.99-4.12H326.06z M326.02,105.5v3.92h2.35c0.72,0,1.24-0.15,1.55-0.46c0.32-0.31,0.48-0.81,0.48-1.5
				c0-1.31-0.82-1.96-2.47-1.96H326.02z"/>
		</g>
	</g>
</g>
<g id="Guides" class="st0">
	<g class="st1">
	</g>
	<g class="st1">
	</g>
</g>
</svg>
